<svg xmlns="http://www.w3.org/2000/svg" viewBox="0 0 294.82 81.33"><defs><style>.cls-1{fill:#b82065;}.cls-2{fill:#fff;}.cls-3{fill:#b72065;}</style></defs><g id="Layer_2" data-name="Layer 2"><g id="Layer_1-2" data-name="Layer 1"><rect class="cls-1" width="294.82" height="81.33"/><path class="cls-2" d="M79.69,37H83V33.87c0-3.8,2.1-6.3,6.3-6.3l2.09.4v3.8l-2.23-.39c-1.31,0-1.83.78-1.83,2.1V37h4.2v3.81H87.3V56.57H83.1V40.83H79.69V37"/><path class="cls-2" d="M102.12,36.63A10.24,10.24,0,1,1,91.89,46.86a10.17,10.17,0,0,1,10.23-10.23m0,16.66c3.94,0,6-2.88,6-6.43s-2.1-6.43-6-6.43-6,2.89-6,6.43S98.19,53.29,102.12,53.29Z"/><path class="cls-2" d="M124.3,36.63a10.24,10.24,0,1,1-10.23,10.23A10.17,10.17,0,0,1,124.3,36.63m0,16.66c3.94,0,6-2.88,6-6.43s-2.1-6.43-6-6.43-6,2.89-6,6.43S120.36,53.29,124.3,53.29Z"/><path class="cls-2" d="M156.32,56.57h-3.81l-.39-1.7-.26-.27-.27.27A7.64,7.64,0,0,1,146.21,57a9.94,9.94,0,0,1-10-10.23,10,10,0,0,1,10-10.24,7.43,7.43,0,0,1,5.38,2.1l.27.27.26-.27V27.7h4.2V56.57M146.48,40.3c-3.94,0-6,2.89-6,6.43s2.1,6.43,6,6.43a6.11,6.11,0,0,0,6-6.43A6.19,6.19,0,0,0,146.48,40.3Z"/><path class="cls-2" d="M160.51,37h3.81l.39,1.71L165,39l.26-.26a7.63,7.63,0,0,1,5.38-2.1,9.94,9.94,0,0,1,10,10.23,10,10,0,0,1-10,10.24,7.41,7.41,0,0,1-5.38-2.1l-.26-.26-.27.26V65.49h-4.06V37h-.14m9.71,16.27c3.94,0,6-2.88,6-6.43s-2.1-6.43-6-6.43a6.12,6.12,0,0,0-6,6.43A6.2,6.2,0,0,0,170.22,53.29Z"/><path class="cls-2" d="M191,44.37h3.41v-.92c0-2.36-1.58-3.41-3.81-3.41a3.66,3.66,0,0,0-3.67,2.62l-3.67-.78c.78-3.28,3.67-5.39,7.47-5.39,5.25,0,7.87,2.63,7.87,7.75v12.2h-3.4l-.4-2.62c-1.31,2-3.41,2.88-6.16,2.88-3.55,0-6-2.09-6-6s3.28-6.3,8.4-6.3m-1.84,8.92A4.93,4.93,0,0,0,192.66,52a4.59,4.59,0,0,0,1.58-3.68v-.39h-3.55c-2.49,0-4.06,1.18-4.06,3A2.31,2.31,0,0,0,189.12,53.29Z"/><path class="cls-2" d="M202.24,37h3.81l.39,1.71.26.26.27-.26c.78-1.32,2.88-2.1,4.59-2.1,5,0,7.87,3.28,7.87,7.87V56.57h-4.2V44.5c-.13-2.63-1.44-4.2-4.2-4.2a4.62,4.62,0,0,0-4.59,4.46V56.57h-4.2V37"/><path class="cls-2" d="M241.87,56.57h-3.81l-.39-1.7-.26-.27-.27.27A7.62,7.62,0,0,1,231.76,57a9.94,9.94,0,0,1-10-10.23,10,10,0,0,1,10-10.24,7.41,7.41,0,0,1,5.38,2.1l.27.27.26-.27V27.7h4.2V56.57M232.16,40.3c-3.94,0-6,2.89-6,6.43s2.1,6.43,6,6.43a6.11,6.11,0,0,0,6-6.43A6.19,6.19,0,0,0,232.16,40.3Z"/><path class="cls-2" d="M253.81,44.37h3.41v-.92c0-2.36-1.57-3.41-3.81-3.41a3.67,3.67,0,0,0-3.67,2.62l-3.67-.78c.79-3.28,3.67-5.39,7.47-5.39,5.25,0,7.88,2.63,7.88,7.75v12.2H258l-.4-2.62c-1.31,2-3.41,2.88-6.16,2.88-3.54,0-6-2.09-6-6s3.15-6.3,8.4-6.3M252,53.29A4.91,4.91,0,0,0,255.51,52a4.59,4.59,0,0,0,1.58-3.68v-.39h-3.55c-2.49,0-4.06,1.18-4.06,3A2.31,2.31,0,0,0,252,53.29Z"/><path class="cls-2" d="M50.39,59.8A17.81,17.81,0,0,1,32.67,42.08a18.26,18.26,0,0,1,3-10,16.74,16.74,0,0,1,7-6,18.28,18.28,0,0,1,15.44,0,19,19,0,0,1,7,6,18.26,18.26,0,0,1,3,10A17.81,17.81,0,0,1,50.39,59.8"/><path class="cls-3" d="M60.59,34.42c-1.58-1.05-5-1.58-6.33.14a2.69,2.69,0,0,0,0,3.69,13.84,13.84,0,0,1,3.3,5.14c.39,1.58,1,2.11,2.24,2.11s3.56-1.85,4-4.88a6.63,6.63,0,0,0-3.16-6.2M57,38.25a.93.93,0,1,1,.92-.93A.9.9,0,0,1,57,38.25Z"/><path class="cls-3" d="M46.45,34.56c-1.32-1.72-4.74-1.19-6.33-.14A6.79,6.79,0,0,0,37,40.62c.26,3,2.64,4.88,4,4.88s1.84-.66,2.23-2.11,1.72-3.29,3.3-5.14a2.65,2.65,0,0,0,0-3.69M44,38.25a.93.93,0,1,1,0-1.85.93.93,0,0,1,0,1.85Z"/><path class="cls-2" d="M40.83,24.44a4.65,4.65,0,0,0-2-.45,4.58,4.58,0,0,0-2,.45A4.33,4.33,0,0,0,34.91,26a4.82,4.82,0,0,0-.79,2.63,4.68,4.68,0,1,0,9.35,0,4.83,4.83,0,0,0-.8-2.63,5,5,0,0,0-1.84-1.59m-2,7.5a3.29,3.29,0,0,1-3.28-3.28,3.44,3.44,0,0,1,.55-1.85,3.33,3.33,0,0,1,4.16-1.11,3.41,3.41,0,0,1,1.3,1.11,3.44,3.44,0,0,1,.56,1.85A3.3,3.3,0,0,1,38.79,31.94Z"/><path class="cls-2" d="M65.91,26a4.9,4.9,0,0,0-1.85-1.59,4.83,4.83,0,0,0-4.07,0A4.39,4.39,0,0,0,58.14,26a4.82,4.82,0,0,0-.79,2.63,4.68,4.68,0,1,0,9.35,0A4.82,4.82,0,0,0,65.91,26M62,31.94a3.3,3.3,0,0,1-3.29-3.28,3.36,3.36,0,0,1,.56-1.85A3.3,3.3,0,0,1,62,25.38a3.16,3.16,0,0,1,1.43.32,3.56,3.56,0,0,1,1.3,1.11,3.44,3.44,0,0,1,.55,1.85A3.29,3.29,0,0,1,62,31.94Z"/><path class="cls-3" d="M50.36,50.35a4.12,4.12,0,0,0,4.34-3.81H46c0,2.1,1.84,3.81,4.34,3.81"/><path class="cls-3" d="M50.36,45.43c.26.13,3-.88,3-2.15,0-.76-2.24-.88-3-.88s-3,.12-3,.88c-.13,1.27,2.76,2.28,3,2.15"/></g></g></svg>