<svg xmlns="http://www.w3.org/2000/svg" viewBox="0 0 151.36 28.18"><defs><style>.cls-1{fill:#00ae41;fill-rule:evenodd;}</style></defs><g id="Layer_2" data-name="Layer 2"><g id="Layer_1-2" data-name="Layer 1"><path class="cls-1" d="M137.33,18.79c0-2.24-.17-4.62,2-6.15,3-2,7.71-.39,7.71,3.66,0,1.76.17,3.09-.42,4.59a5.29,5.29,0,0,1-.88,1.45,5.09,5.09,0,0,1-5.73,1,4.22,4.22,0,0,1-1.41-1,5.46,5.46,0,0,1-1.34-3.52Zm9.75-9.35c-.31-.2-.42-.43-.82-.68a5.49,5.49,0,0,0-1-.54c-2.1-1-5.16-.62-7.23.23-3,1.24-5,4.62-5,8.19,0,2.29-.14,4,.77,6.09,2.1,5,7.85,6.35,12.33,4.57a6.36,6.36,0,0,0,1.42-.77,7.52,7.52,0,0,0,1.78-1.59,4.15,4.15,0,0,0,.46-.62,9.54,9.54,0,0,0,1.58-5.19V.57h-4.28V9.44Z"/><path class="cls-1" d="M101.48,23.87a5.73,5.73,0,0,1-2.07-.43,5.1,5.1,0,0,1-2.92-4.65c0-2.07-.17-4,1.33-5.52A5,5,0,0,1,106.38,17c0,1.84,0,3.88-1.3,5.24a5.09,5.09,0,0,1-1.45,1.11,6.35,6.35,0,0,1-2.15.51Zm-9.27-7.34c0,3.06-.14,4.9,1.5,7.59,2.27,3.71,7.85,4.79,11.73,3.06a8.41,8.41,0,0,0,1.51-.82c.25-.2.42-.31.65-.51A7.6,7.6,0,0,0,110,22.39c1-2.89,1-8-.68-10.68a8.8,8.8,0,0,0-1.5-1.85c-.26-.19-.31-.31-.6-.51-2.35-1.58-3.68-1.73-6.55-1.73a9,9,0,0,0-6.06,2.58,9.56,9.56,0,0,0-2.44,6.3Z"/><path class="cls-1" d="M121.74,23.87a4.84,4.84,0,0,1-4.53-2.95,9.23,9.23,0,0,1-.46-4.05c0-6.69,9.9-6.86,9.9.17a9.75,9.75,0,0,1-.37,3.62,5.31,5.31,0,0,1-.94,1.62,4.86,4.86,0,0,1-3.6,1.62Zm-9.27-7.34v2.4a8.78,8.78,0,0,0,9,9.05,9.59,9.59,0,0,0,4.19-.8,7.58,7.58,0,0,0,2.16-1.33c2.8-2.44,3.06-5.33,3.06-8.87a9.76,9.76,0,0,0-1.79-6,7.88,7.88,0,0,0-3.09-2.53,11.2,11.2,0,0,0-8.62-.08,8.15,8.15,0,0,0-4.28,4.45,10.18,10.18,0,0,0-.73,3.63Z"/><path class="cls-1" d="M76.36,3.74V27.38c0,.17.06.23.23.23h4c.17,0,.22-.06.22-.23V18.25H89.6V14.12H80.78V7.65h9.75V3.74c0-.17,0-.23-.22-.23H76.59C76.42,3.51,76.36,3.57,76.36,3.74Z"/><path class="cls-1" d="M0,15.36c0,3.06.08,4.34,1.5,7a7.65,7.65,0,0,0,.54.88,8.56,8.56,0,0,0,1.3,1.51,10.51,10.51,0,0,0,3.21,2.32,12.78,12.78,0,0,0,11-.26,8.12,8.12,0,0,0,1.78-1.16c.23-.2,1.11-.88,1.11-1.22V14.77H11.08v1.87h7.49v7.17c0,.34-.85.88-1.14,1.05a7.81,7.81,0,0,1-1.5.76A10.73,10.73,0,0,1,4.62,23.5,9.78,9.78,0,0,1,1.87,17,9.52,9.52,0,0,1,3,11.65l2.1-2.72A10.59,10.59,0,0,1,13.1,6.12a11.87,11.87,0,0,1,2.77.34l1.73.63.57.28V5.27a13.17,13.17,0,0,0-2.64-.71,15,15,0,0,0-8.08.77A11.93,11.93,0,0,0,3.88,7.6,12.08,12.08,0,0,0,2.47,9.07a8.9,8.9,0,0,0-.63.85c-.22.34-.34.57-.56.94A10.68,10.68,0,0,0,0,15.42Z"/><path class="cls-1" d="M33.87,16.38c0,2.38-.2,4,.88,6.13A10.4,10.4,0,0,0,36.59,25c2.19,1.9,4.57,3,7.71,2.41.54-.12.94-.31,1.25-.37V25.2c-2,.45-3,1-5.53-.09a5,5,0,0,1-1.1-.62,7.35,7.35,0,0,1-1.76-1.67c-1.67-2.24-1.42-3.8-1.42-6.46a7,7,0,0,1,.71-2.58,7.26,7.26,0,0,1,6-4,7.08,7.08,0,0,1,7.48,6.94V27.58h1.88V16.67A8.44,8.44,0,0,0,51,13.21a7.19,7.19,0,0,0-1.53-2.3,9,9,0,0,0-6.23-3h-.8c-4.5,0-8.59,4.36-8.59,8.42Z"/><path class="cls-1" d="M53,18.48c.25-.17,1.9-2.29,2.21-2.64l2.29-2.52c2.1-2.1,3.49-3.48,6.81-3.48a6.85,6.85,0,0,1,4.62,2.06L69,12c2.07,2.24,2.07,3.74,2.07,6.66,0,6.72-8.84,9.84-12.9,4a6,6,0,0,1-.9-2.07c-.23.06-.23.17-.37.34a2,2,0,0,0-.31.4,8.65,8.65,0,0,0-.63.76c0,1.16,1.73,3.15,2.84,3.88A9,9,0,0,0,73,18.48V16.92a8.72,8.72,0,0,0-2.55-6.18,8.32,8.32,0,0,0-2.49-1.87,8.56,8.56,0,0,0-8.74.6L58,10.32a22.1,22.1,0,0,0-2.66,2.55,2.46,2.46,0,0,1-.29.34c-.14.17-.19.2-.34.37s-.39.48-.59.73C52.55,16.1,53,15.84,53,18.48Z"/><path class="cls-1" d="M3.15,15.93v.62a8.53,8.53,0,0,0,8.41,8.51,11.06,11.06,0,0,0,4.68-.94c.23-.11,1-.57,1-.85V17.89H11.11v1.87h4.45v2.72a11.19,11.19,0,0,1-3.91.71A6.59,6.59,0,0,1,5,16.47v-.71a6.42,6.42,0,0,1,2.29-4.65,9.27,9.27,0,0,1,8.42-1.53,6.48,6.48,0,0,1,1.36.51,8,8,0,0,1,1.11.77V8.59c-.37-.09-.8-.37-1.22-.51a11.41,11.41,0,0,0-9.72.71L6,9.75A8.35,8.35,0,0,0,3.12,15.9Z"/><path class="cls-1" d="M53,23.55c.11-.08,3.68-4.59,4.53-5.52s1.84-2.16,2.89-3.21c1.39-1.38,3-2.55,5.28-1.5,1.92.91,2.26,2.55,2.26,4.74a4.45,4.45,0,0,1-1,3.09,3.83,3.83,0,0,1-3.23,1.36c-2.1,0-4-2.9-4-5.08-.31.2-1.19,1.56-1.56,1.79A7.33,7.33,0,0,0,60,22.62a5.34,5.34,0,0,0,3.57,1.73,5.62,5.62,0,0,0,2.89-.54A5.88,5.88,0,0,0,69.76,19c0-2.75.28-4.16-1.82-6.29A6,6,0,0,0,64,11a6.93,6.93,0,0,0-4.09,1.78c-1,.85-3.23,3.38-4.22,4.51-.37.45-2.52,2.95-2.66,3.26A16.3,16.3,0,0,0,53,23.5Z"/><path class="cls-1" d="M37,16.87c0,2.23-.14,4,1.64,5.75a5.72,5.72,0,0,0,5.84,1.59,6.31,6.31,0,0,0,1.08-.49v-2c-3.17,2.13-6.72.06-6.72-3V16.84a3.94,3.94,0,0,1,6.83-2.64,4,4,0,0,1,1.11,3V27.61h1.87V17.23a5.83,5.83,0,0,0-8.19-5.64,7,7,0,0,0-1.73,1.17,2,2,0,0,0-.31.39A5.55,5.55,0,0,0,37,16.84Z"/><path class="cls-1" d="M22.39,16.7V27.61h1.87V16.7a6.81,6.81,0,0,1,3.86-6.21,7.68,7.68,0,0,1,5.95-.14,4,4,0,0,0,.65.28c.12-.45,1.05-1.05,1.17-1.47-.15,0-1-.51-1.79-.8A8.77,8.77,0,0,0,30.9,8,8.67,8.67,0,0,0,24,11.73a9.19,9.19,0,0,0-1.56,5Z"/><path class="cls-1" d="M25.51,17.4v10c0,.4.77.23,1.87.23V17.32c0-3,2-4.73,4.91-4.28a7.37,7.37,0,0,0,.87.23c.15-.29.23-.51.37-.8s.37-.62.43-.82a3.23,3.23,0,0,1-.57-.23,6.15,6.15,0,0,0-6.29,1.51,6.37,6.37,0,0,0-1.59,4.5Z"/><path class="cls-1" d="M54.85,11.56c.28-.19.88-1.1,1.64-1.7.12-.08.23-.11.23-.31V0H54.85Z"/><path class="cls-1" d="M58,8.9c.51-.25.85-.65,1.41-1,.17-.12.46-.2.46-.43V0H58Z"/></g></g></svg>