<?xml version="1.0" encoding="utf-8"?>
<!-- Generator: Adobe Illustrator 25.0.0, SVG Export Plug-In . SVG Version: 6.00 Build 0)  -->
<svg version="1.1" id="Layer_1" xmlns="http://www.w3.org/2000/svg" xmlns:xlink="http://www.w3.org/1999/xlink" x="0px" y="0px"
	 viewBox="0 0 800 800" style="enable-background:new 0 0 800 800;" xml:space="preserve">
<style type="text/css">
	.st0{fill:#FFFFFF;}
</style>
<path class="st0" d="M167.2,139.85h460.95c15.625,0,29.7,14.075,29.7,29.7V630.5c0,15.625-14.075,29.7-29.7,29.7H167.2
	c-15.625,0-29.7-14.075-29.7-29.7V169.55C137.5,153.925,151.575,139.85,167.2,139.85z M507.025,432.025H578.9l3.125-68.75h-75V312.5
	c0-19.525,3.9-30.475,28.9-30.475h43.75l1.575-64.075c0,0-19.525-3.125-47.65-3.125c-68.75,0-99.225,42.975-99.225,89.075v59.375
	H383.6v68.75h50.775V622.65h72.65V432.025z"/>
</svg>
