<?xml version="1.0" encoding="utf-8"?>
<!-- Generator: Adobe Illustrator 25.0.0, SVG Export Plug-In . SVG Version: 6.00 Build 0)  -->
<svg version="1.1" id="Layer_1" xmlns="http://www.w3.org/2000/svg" xmlns:xlink="http://www.w3.org/1999/xlink" x="0px" y="0px"
	 viewBox="0 0 800 800" style="enable-background:new 0 0 800 800;" xml:space="preserve">
<style type="text/css">
	.st0{fill:#FFFFFF;}
</style>
<path class="st0" d="M285.225,320.4L175.4,495.1c-1.775,2.7-2.8,6-2.8,9.525c0,9.7,7.875,17.575,17.575,17.575
	c4.1,0,7.85-1.4,10.85-3.75l118.2-89.525c3.7-2.925,8.425-4.675,13.575-4.675c5.15,0,9.875,1.75,13.625,4.725l-0.05-0.025
	l87.35,65.525c9.25,6.95,20.95,11.125,33.6,11.125c19.875,0,37.375-10.3,47.375-25.875l0.125-0.225L624.65,304.8
	c1.725-2.675,2.75-5.95,2.75-9.45c0-9.725-7.875-17.6-17.6-17.6c-4.05,0-7.8,1.375-10.775,3.675l0.05-0.025l-118.25,89.55
	c-3.65,2.925-8.325,4.675-13.425,4.675s-9.775-1.775-13.45-4.725l0.05,0.025L366.65,305.4c-9.3-7.075-21.075-11.35-33.85-11.35
	c-19.95,0-37.475,10.4-47.45,26.1l-0.125,0.225L285.225,320.4z M25.65,388.75c0-0.625,0-1.375,0-2.1
	C25.65,187.125,187.4,25.4,386.9,25.4c4.625,0,9.225,0.075,13.8,0.25l-0.65-0.025c3.9-0.15,8.5-0.25,13.1-0.25
	c199.5,0,361.25,161.725,361.25,361.25c0,0.75,0,1.475,0,2.225v-0.125c0,0.625,0,1.35,0,2.075c0,199.5-161.725,361.25-361.25,361.25
	c-4.625,0-9.225-0.075-13.8-0.25l0.65,0.025c-0.275,0-0.6,0-0.925,0c-38.175,0-75.15-5.25-110.2-15.025l2.875,0.675
	c-2.325-0.65-5.025-1.025-7.775-1.025c-4.4,0-8.6,0.95-12.375,2.675l0.2-0.075l-74.575,32.75c-3.575,1.625-7.775,2.6-12.175,2.6
	c-16.25,0-29.475-12.925-29.925-29.075v-0.05L152.95,678.5c-0.375-8.45-4.125-15.925-9.95-21.2l-0.025-0.025
	C70.825,592,25.7,498,25.7,393.5c0-1.675,0-3.325,0.025-5v0.25L25.65,388.75z"/>
</svg>
