<?xml version="1.0" encoding="utf-8"?>
<!-- Generator: Adobe Illustrator 25.0.0, SVG Export Plug-In . SVG Version: 6.00 Build 0)  -->
<svg version="1.1" id="Camada_1" xmlns="http://www.w3.org/2000/svg" xmlns:xlink="http://www.w3.org/1999/xlink" x="0px" y="0px"
	 viewBox="0 0 800 800" style="enable-background:new 0 0 800 800;" xml:space="preserve">
<style type="text/css">
	.st0{fill:#FFFFFF;}
</style>
<g>
	<circle class="st0" cx="400" cy="402.5" r="80"/>
	<path class="st0" d="M500,197.5H300c-55,0-102.5,45-102.5,102.5v200c0,55,45,102.5,102.5,102.5h200c55,0,102.5-45,102.5-102.5V300
		C602.5,245,557.5,197.5,500,197.5z M522.5,402.5c0,67.5-55,122.5-122.5,122.5s-122.5-55-122.5-122.5S332.5,280,400,280
		C470,280,525,335,522.5,402.5z M532.5,302.5c-17.5,0-30-12.5-30-30s15-30,30-30s27.5,12.5,30,30C562.5,290,550,302.5,532.5,302.5z"
		/>
	<path class="st0" d="M650,50H150C95,50,50,95,50,150v500c0,55,45,100,100,100h500c55,0,100-45,100-100V150C750,95,705,50,650,50z
		 M650,500c0,82.5-67.5,150-150,150H300c-82.5,0-150-67.5-150-150V300c0-82.5,67.5-150,150-150h200c82.5,0,150,67.5,150,150V500z"/>
</g>
</svg>
