<?xml version="1.0" encoding="utf-8"?>
<!-- Generator: Adobe Illustrator 25.0.0, SVG Export Plug-In . SVG Version: 6.00 Build 0)  -->
<svg version="1.1" id="Layer_1" xmlns="http://www.w3.org/2000/svg" xmlns:xlink="http://www.w3.org/1999/xlink" x="0px" y="0px"
	 viewBox="0 0 648.8 515.8" style="enable-background:new 0 0 648.8 515.8;" xml:space="preserve">
<style type="text/css">
	.st0{fill:#FFFFFF;}
</style>
<g id="Layer_1-2">
	<path class="st0" d="M471.5,225.4c-5.1,6.2-10.3,12.6-15.5,19c-15.5,19.1-31,38.3-46.6,57.3c-2,2.5-2.1,4.2-0.6,7
		c21.5,40,17,87.7-11.5,122.7c-27.9,34.3-74.1,48.6-117.2,36.1c-3.2-0.9-5.1-0.5-7.2,2.2c-7.3,9.3-14.8,18.4-22.4,27.5
		c-1.2,1.6-2.7,2.9-4.5,3.7c-12.4,4.9-24.8,9.6-37.3,14.4c-1,0.2-2,0.4-3,0.4l48-59.1c-35.7-23.5-54.8-56.1-53.8-99.1
		c0.6-29.1,12-54,32.6-74.5c41.9-41.9,113.3-45.3,160,2.6c1.1-1.2,2.2-2.4,3.2-3.7c18.7-23,37.4-46,56.2-68.9c2.2-2.7,2.3-4.3,0-7.1
		c-43-52.4-30.5-129,27.4-164.4c35-21.3,71.7-22.4,108.7-4.5c4,2,5.9,1.3,8.5-2c9.2-11.7,18.8-23.2,28.4-35.2l17.9,14.5
		c-9.3,11.5-18.2,22.9-27.6,33.8c-3.2,3.7-2.7,5.6,0.6,8.8c34,32.9,41.8,83.8,22.9,124.8c-19.7,42.4-63.8,68-110.4,63.9
		c-18.4-1.4-36-7.5-51.4-17.7c-1.4-0.9-2.8-1.8-4.2-2.6C472.3,225.5,471.9,225.5,471.5,225.4z M310.9,272.4
		c-4.6,0.5-9.3,0.7-13.9,1.4c-42.9,6.4-75.9,44.6-75.2,87.8c0.5,31.8,14.6,56.6,40.9,74.6c4.1,2.8,6.2,2.1,9.1-1.6
		c19.5-24.4,39.3-48.6,59.1-72.8c14.6-17.9,29.1-36,43.8-53.7c3.2-3.8,2.8-6-0.7-9.3C356.5,281.5,335.5,272.7,310.9,272.4z
		 M486.1,207.6c34.2,26,90.1,23.9,122.6-18.4c29.5-38.5,21-91.1-11.2-118.7L486.1,207.6z M578.4,57.1
		C545.7,38.5,493,43.5,463.8,85.9c-26,37.7-15.4,85.2,5.6,105.4L578.4,57.1z M291.2,447.4c26.7,8.2,65.4-0.8,89.2-30.3
		c23-28.4,25.1-67.2,10.8-92.9L291.2,447.4z"/>
	<path class="st0" d="M1.9,29.2C3.8,29.1,5.3,29,6.8,29c40.3,0,80.7,0,121,0c12.9,0,25.2,2.2,36.6,8.5c33.9,18.8,37.7,67.1,7.2,91
		c-1.7,1.3-3.4,2.6-5.6,4.2c1.6,0.9,2.8,1.7,4,2.4c21,11.4,32.1,28.9,30.4,53s-14.8,40.6-37,49.4c-7.1,2.8-14.7,4.4-22.3,4.5
		c-45.2,0.5-90.3,0.3-135.4,0.3c-1.1,0-2.3-0.2-3.7-0.4L1.9,29.2z M23.8,144.3c-0.1,1.9-0.2,3.5-0.2,5.1c0,22.3,0.1,44.6-0.1,66.9
		c0,4.4,1.2,5.6,5.6,5.6c34.1-0.2,68.3,0,102.4-0.1c4.5,0,9-0.3,13.4-0.9c27.8-3.9,42.8-34.8,28-58.1c-8-12.7-20.4-18.4-35-18.6
		c-36.7-0.3-73.3-0.1-109.9-0.1C26.7,144.1,25.4,144.2,23.8,144.3z M23.8,124.5c2.8,0.1,5.1,0.3,7.4,0.3c31.3,0,62.6,0,93.9,0
		c4.3,0.1,8.6-0.2,12.9-0.8c14.9-2.3,25.5-10.5,30-24.9c4.4-14.3,2.3-27.6-9.1-38.4c-7.7-7.3-17.3-10.5-27.7-10.5
		c-34.5-0.2-69-0.1-103.5-0.1c-1.3,0-2.5,0.2-4,0.3L23.8,124.5z"/>
	<path class="st0" d="M199.8,135.4C199.7,75,249.6,25.2,310.1,25.1c62.2-0.1,112.2,49.2,112.2,110.5c0,60.9-49.7,110.6-110.6,110.7
		C249.6,246.4,199.9,197.1,199.8,135.4z M311.3,224.8c48.7-0.2,89.3-40.9,89.2-89.4c-0.1-48.8-40.7-88.6-90.2-88.6
		c-48.5,0.1-89,40.6-88.5,89C222.3,186.4,262.8,224.1,311.3,224.8z"/>
	<path class="st0" d="M545.8,253.6c-0.4,5.2-1.2,10.5-1.2,15.7c0.4,25.2,12.5,42.8,35.1,53.4c2.9,1.4,4.2,2.6,4.3,6
		c0.6,23.3,20,41.7,43.3,41.1c4.9-0.1,9.7-1.1,14.2-2.9c1.2-0.5,2.4-0.9,3.7-1.3c1.6,25.5-15.2,68.1-55.6,90.3
		c-40.5,22.4-93.2,15.3-127.1-17.6c-34.6-33.7-42.9-85.3-19.8-128.6C466.5,265.4,513.3,249.6,545.8,253.6z M618.8,391.9
		c-0.6-0.4-1.3-0.7-2-1c-28-5.1-45.3-21.7-53.3-48.7c-0.8-2.2-2.3-4.1-4.2-5.5c-19.8-13.5-32.2-31.8-35.6-55.6
		c-0.7-4.8-2.7-5.1-6.2-4.1c-45.7,11.9-72.3,55.1-64.7,98.3c8.6,48.6,54.2,79.9,102.2,70.1C585.6,439.3,606.4,420.7,618.8,391.9
		L618.8,391.9z"/>
	<path class="st0" d="M208.5,309.1l-19.1,9.1c-30.6-53.7-100.2-59.1-139.8-21.4c-37.5,35.9-37.2,94,0.7,129.8
		C89,463,158.4,459,189.8,404.3l18.7,9c-14.6,31.8-57.7,64.7-111,58c-53.8-6.9-92.5-49.4-96.9-98c-6-65.2,37.6-107.4,81.8-118.9
		C137.4,240.1,187.1,268.6,208.5,309.1z"/>
</g>
</svg>
