<?xml version="1.0" encoding="utf-8"?>
<!-- Generator: Adobe Illustrator 25.0.0, SVG Export Plug-In . SVG Version: 6.00 Build 0)  -->
<svg version="1.1" id="Layer_1" xmlns="http://www.w3.org/2000/svg" xmlns:xlink="http://www.w3.org/1999/xlink" x="0px" y="0px"
	 viewBox="0 0 648.76 515.79" style="enable-background:new 0 0 648.76 515.79;" xml:space="preserve">
<style type="text/css">
	.st0{fill:#FF5E00;}
</style>
<g id="Layer_1-2">
	<path class="st0" d="M471.55,225.43c-5.06,6.2-10.32,12.61-15.55,19c-15.53,19.13-31,38.31-46.65,57.34c-2,2.48-2.08,4.19-0.6,6.95
		c21.55,40,17,87.68-11.47,122.66c-27.94,34.27-74.14,48.56-117.2,36.08c-3.22-0.93-5.08-0.47-7.18,2.23
		c-7.28,9.31-14.82,18.42-22.36,27.53c-1.18,1.58-2.72,2.86-4.49,3.72c-12.37,4.93-24.82,9.64-37.26,14.4
		c-0.99,0.22-1.99,0.36-3,0.41l48-59.1c-35.66-23.51-54.8-56.13-53.83-99.1c0.65-29.07,12-54,32.56-74.53
		c41.89-41.85,113.32-45.27,160,2.62c1.09-1.24,2.21-2.41,3.23-3.67c18.71-23,37.36-46,56.17-68.92c2.22-2.7,2.3-4.26,0-7.07
		c-43-52.4-30.54-129,27.35-164.35C514.26,20.3,551,19.25,588,37.17c4,2,5.92,1.29,8.48-2c9.23-11.71,18.77-23.25,28.44-35.17
		l17.9,14.54c-9.31,11.49-18.2,22.87-27.59,33.84c-3.17,3.7-2.74,5.57,0.57,8.78c34,32.92,41.81,83.84,22.86,124.81
		c-19.68,42.42-63.8,67.98-110.39,63.95c-18.36-1.45-36.05-7.53-51.43-17.66c-1.39-0.91-2.81-1.75-4.23-2.62
		C472.26,225.53,471.91,225.46,471.55,225.43z M310.87,272.37c-4.62,0.46-9.27,0.73-13.86,1.42c-42.85,6.44-75.9,44.59-75.2,87.79
		c0.51,31.77,14.6,56.59,40.94,74.56c4.13,2.81,6.18,2.1,9.13-1.6c19.55-24.38,39.34-48.58,59.06-72.83
		c14.58-17.94,29.06-35.95,43.83-53.71c3.18-3.83,2.79-6-0.67-9.33C356.45,281.54,335.55,272.66,310.87,272.37z M486.1,207.59
		c34.2,26,90.08,23.91,122.59-18.39c29.54-38.46,21-91.06-11.18-118.72L486.1,207.59z M578.38,57.13
		C545.65,38.49,493,43.52,463.8,85.89c-26,37.74-15.35,85.15,5.57,105.39L578.38,57.13z M291.2,447.43
		c26.74,8.19,65.41-0.83,89.25-30.26c23-28.42,25.07-67.21,10.81-92.88L291.2,447.43z"/>
	<path class="st0" d="M1.9,29.18C3.81,29.09,5.28,29,6.76,29c40.32,0,80.65,0,121,0c12.88,0,25.2,2.21,36.56,8.5
		c33.9,18.77,37.72,67.09,7.21,91c-1.68,1.32-3.42,2.58-5.55,4.2c1.56,0.92,2.77,1.68,4,2.37c21,11.45,32.08,28.91,30.42,53
		s-14.75,40.6-37,49.4c-7.11,2.84-14.68,4.37-22.33,4.52c-45.15,0.46-90.3,0.3-135.45,0.33c-1.13,0-2.27-0.21-3.74-0.36L1.9,29.18z
		 M23.76,144.34c-0.09,1.88-0.24,3.5-0.24,5.12c0,22.29,0.12,44.58-0.11,66.88c0,4.42,1.19,5.6,5.59,5.57
		c34.14-0.17,68.29,0,102.44-0.12c4.49,0,8.97-0.32,13.42-0.93c27.83-3.92,42.8-34.82,28-58.14c-8-12.72-20.42-18.44-35-18.57
		c-36.65-0.32-73.29-0.11-109.94-0.1C26.66,144.05,25.38,144.23,23.76,144.34z M23.76,124.54c2.84,0.13,5.13,0.32,7.43,0.32
		c31.29,0,62.59,0,93.88,0c4.32,0.06,8.63-0.22,12.91-0.82c14.92-2.31,25.46-10.46,30-24.92c4.45-14.3,2.27-27.61-9.07-38.38
		c-7.73-7.34-17.34-10.45-27.72-10.52C96.66,50,62.2,50.11,27.74,50.12c-1.27,0-2.55,0.19-4,0.3L23.76,124.54z"/>
	<path class="st0" d="M199.78,135.43c-0.09-60.38,49.78-110.25,110.34-110.35C372.35,25,422.31,74.23,422.29,135.62
		c0,60.9-49.72,110.65-110.58,110.69C249.61,246.36,199.87,197.08,199.78,135.43z M311.29,224.81c48.67-0.19,89.33-40.94,89.2-89.39
		c-0.13-48.83-40.7-88.64-90.23-88.55c-48.49,0.1-89,40.55-88.49,89C222.3,186.38,262.79,224.15,311.29,224.81z"/>
	<path class="st0" d="M545.85,253.62c-0.42,5.24-1.25,10.49-1.17,15.73c0.37,25.17,12.54,42.81,35.12,53.42
		c2.9,1.36,4.21,2.57,4.32,6.05c0.61,23.29,19.99,41.67,43.28,41.06c4.88-0.13,9.69-1.1,14.23-2.88c1.2-0.45,2.42-0.87,3.71-1.33
		c1.62,25.51-15.25,68.08-55.57,90.33c-40.51,22.35-93.25,15.32-127.13-17.63c-34.64-33.7-42.93-85.28-19.83-128.57
		C466.53,265.37,513.29,249.61,545.85,253.62z M618.85,391.93c-0.63-0.4-1.3-0.73-2-1c-27.95-5.11-45.32-21.7-53.31-48.69
		c-0.79-2.22-2.27-4.13-4.23-5.45c-19.81-13.49-32.19-31.79-35.61-55.6c-0.68-4.75-2.72-5.06-6.18-4.15
		c-45.68,11.94-72.3,55.12-64.67,98.31c8.6,48.61,54.25,79.86,102.24,70.13c30.54-6.2,51.34-24.79,63.79-53.55H618.85z"/>
	<path class="st0" d="M208.54,309.07l-19.09,9.13c-30.62-53.7-100.23-59.15-139.76-21.36c-37.52,35.88-37.22,94.05,0.74,129.81
		C89,463,158.41,459,189.75,404.3l18.72,9c-14.58,31.84-57.71,64.68-111,58C43.63,464.44,5,421.89,0.55,373.34
		c-6-65.18,37.63-107.36,81.8-118.9C137.38,240.06,187.1,268.63,208.54,309.07z"/>
</g>
</svg>
