<?xml version="1.0" encoding="utf-8"?>
<!-- Generator: Adobe Illustrator 25.0.0, SVG Export Plug-In . SVG Version: 6.00 Build 0)  -->
<svg version="1.1" id="Layer_1" xmlns="http://www.w3.org/2000/svg" xmlns:xlink="http://www.w3.org/1999/xlink" x="0px" y="0px"
	 viewBox="0 0 800 800" style="enable-background:new 0 0 800 800;" xml:space="preserve">
<style type="text/css">
	.st0{fill-rule:evenodd;clip-rule:evenodd;fill:#FFFFFF;}
</style>
<path class="st0" d="M800,129.94c-29.459,14.07-61.083,23.529-94.259,27.858c33.882-21.882,59.906-56.47,72.188-97.788
	c-31.765,20.282-66.965,35.012-104.33,42.917c-29.883-34.4-72.612-55.858-119.765-55.858c-90.729,0-164.235,79.152-164.235,176.752
	c0,13.882,1.506,27.341,4.235,40.282c-136.377-7.388-257.459-77.694-338.4-184.659c-14.071,26.071-22.212,56.471-22.212,88.847
	c0,61.317,37.93,115.341,81.977,147.106c-26.917-0.942-65.459-8.942-65.459-22.212v2.353c0,85.553,47.671,156.941,122.729,173.27
	c-13.741,3.953-32.658,6.165-47.67,6.165c-10.588,0-23.106-1.129-33.177-3.247c20.942,70.212,80.471,121.318,152.283,122.824
	c-56.188,47.294-127.529,75.576-204.423,75.576c-13.271,0-26.682-0.847-39.482-2.447c72.706,50.071,158.823,79.388,251.529,79.388
	c302.071,0,467.106-269.223,467.106-502.729c0-7.671-0.188-15.388-0.565-22.965C750.165,196.481,778.023,165.375,800,129.94"/>
</svg>
